<svg width="46" height="24" viewBox="0 0 46 24" fill="none" xmlns="http://www.w3.org/2000/svg">
<path fill-rule="evenodd" clip-rule="evenodd" d="M42.2459 5.35477C41.7505 5.35477 41.2811 5.46801 40.8621 5.6699C40.7577 3.99982 39.3665 2.67298 37.6706 2.67298C37.1743 2.67298 36.7041 2.78659 36.2845 2.98921C36.1655 1.33333 34.7811 0.0221558 33.0954 0.0221558C31.3318 0.0221558 29.897 1.45695 29.897 3.22061V8.52232C29.897 9.02532 30.3048 9.43311 30.8078 9.43311C31.3108 9.43311 31.7186 9.02532 31.7186 8.52232V3.22061C31.7186 2.46137 32.3362 1.84374 33.0954 1.84374C33.8546 1.84374 34.4722 2.46137 34.4722 3.22061V17.8091V20.4599C34.4722 21.2192 33.8546 21.8368 33.0954 21.8368C32.3362 21.8368 31.7186 21.2192 31.7186 20.4599V15.1582C31.7186 14.6552 31.3108 14.2474 30.8078 14.2474H18.5235C18.0205 14.2474 17.6127 14.6552 17.6127 15.1582C17.6127 15.6612 18.0205 16.069 18.5235 16.069H29.897V20.4599C29.897 22.2236 31.3318 23.6584 33.0954 23.6584C34.7811 23.6584 36.1655 22.3472 36.2845 20.6913C36.7041 20.8939 37.1743 21.0075 37.6706 21.0075C39.3665 21.0075 40.7577 19.6806 40.8621 18.0106C41.2811 18.2125 41.7505 18.3258 42.2459 18.3258C44.0095 18.3258 45.4443 16.891 45.4443 15.1274V8.5531C45.4443 6.78951 44.0095 5.35477 42.2459 5.35477ZM39.0476 17.8091C39.0476 18.5683 38.4299 19.186 37.6707 19.186C36.9115 19.186 36.2938 18.5683 36.2938 17.8091V5.87143C36.2938 5.1122 36.9115 4.49456 37.6707 4.49456C38.4299 4.49456 39.0476 5.1122 39.0476 5.87143V17.8091ZM42.2459 16.5042C43.0051 16.5042 43.6228 15.8865 43.6228 15.1274V8.5531C43.6228 7.79399 43.0051 7.17635 42.2459 7.17635C41.4867 7.17635 40.8691 7.79399 40.8691 8.5531V15.1274C40.8691 15.8865 41.4867 16.5042 42.2459 16.5042Z" fill="#EE4D64"/>
<path fill-rule="evenodd" clip-rule="evenodd" d="M14.9576 14.2474C14.4546 14.2474 14.0468 14.6552 14.0468 15.1582V20.4599C14.0468 21.2192 13.4292 21.8368 12.67 21.8368C11.9107 21.8368 11.2931 21.2192 11.2931 20.4599V17.8091V5.87143V3.22061C11.2931 2.46137 11.9107 1.84374 12.67 1.84374C13.4292 1.84374 14.0468 2.46137 14.0468 3.22061V8.52232C14.0468 9.02532 14.4546 9.43311 14.9576 9.43311H27.242C27.745 9.43311 28.1528 9.02532 28.1528 8.52232C28.1528 8.01932 27.745 7.61153 27.242 7.61153H15.8684V3.22061C15.8684 1.45695 14.4336 0.0221558 12.67 0.0221558C10.9842 0.0221558 9.59987 1.33333 9.4808 2.98921C9.06123 2.78659 8.59096 2.67298 8.09464 2.67298C6.39875 2.67298 5.00761 3.99994 4.90317 5.6699C4.4842 5.46801 4.01478 5.35477 3.51937 5.35477C1.75572 5.35477 0.320923 6.78957 0.320923 8.55322V15.1274C0.320923 16.891 1.75572 18.3257 3.51937 18.3257C4.01478 18.3257 4.4842 18.2125 4.90317 18.0106C5.00761 19.6806 6.39875 21.0075 8.09464 21.0075C8.59096 21.0075 9.06117 20.8939 9.4808 20.6913C9.59987 22.3471 10.9842 23.6583 12.67 23.6583C14.4336 23.6583 15.8684 22.2235 15.8684 20.4599V15.1581C15.8684 14.6552 15.4607 14.2474 14.9576 14.2474ZM3.5195 16.5042C2.76032 16.5042 2.14262 15.8865 2.14262 15.1274V8.55322C2.14262 7.79399 2.76026 7.17635 3.5195 7.17635C4.27867 7.17635 4.89631 7.79399 4.89631 8.55322V15.1274C4.89625 15.8865 4.27861 16.5042 3.5195 16.5042ZM6.71783 17.8091C6.71783 18.5683 7.33552 19.186 8.0947 19.186C8.85393 19.186 9.47157 18.5683 9.47157 17.8091V5.87143C9.47157 5.1122 8.85393 4.49456 8.0947 4.49456C7.33546 4.49456 6.71783 5.1122 6.71783 5.87143V17.8091Z" fill="#EE4D64"/>
<path d="M14.0443 11.8935V12.1988C14.0443 12.7018 14.452 13.1096 14.955 13.1096C15.458 13.1096 15.8658 12.7018 15.8658 12.1988V11.8935C15.8658 11.3905 15.458 10.9827 14.955 10.9827C14.452 10.9827 14.0443 11.3905 14.0443 11.8935Z" fill="#EE4D64"/>
<path d="M31.7187 11.7922V11.4868C31.7187 10.9838 31.3108 10.576 30.8079 10.576C30.3048 10.576 29.8971 10.9838 29.8971 11.4868V11.7922C29.8971 12.2952 30.3048 12.703 30.8079 12.703C31.3109 12.703 31.7187 12.2952 31.7187 11.7922Z" fill="#EE4D64"/>
</svg>
